<?xml version="1.0" encoding="UTF-8" standalone="no"?>
<svg
   width="88"
   height="88"
   version="1.1"
   id="svg6"
   sodipodi:docname="logo.svg"
   inkscape:version="1.2.2 (b0a8486541, 2022-12-01)"
   xmlns:inkscape="http://www.inkscape.org/namespaces/inkscape"
   xmlns:sodipodi="http://sodipodi.sourceforge.net/DTD/sodipodi-0.dtd"
   xmlns="http://www.w3.org/2000/svg"
   xmlns:svg="http://www.w3.org/2000/svg">
  <defs
     id="defs10" />
  <sodipodi:namedview
     id="namedview8"
     pagecolor="#505050"
     bordercolor="#eeeeee"
     borderopacity="1"
     inkscape:showpageshadow="0"
     inkscape:pageopacity="0"
     inkscape:pagecheckerboard="0"
     inkscape:deskcolor="#505050"
     showgrid="false"
     inkscape:zoom="2.6818182"
     inkscape:cx="12.305085"
     inkscape:cy="44"
     inkscape:current-layer="svg6" />
  <path
     d="M 44,0 C 19.699778,0 0,19.699778 0,44 A 44,44 0 0 0 17.111111,78.692778 V 51.333333 c 0,-8.099666 6.567,-14.666666 14.666667,-14.666666 a 14.666667,14.666667 0 0 1 9.777778,3.738777 V 22 h 4.888888 v 14.666667 l -0.751666,4.51 a 14.666667,14.666667 0 0 1 10.529444,-4.51 c 8.099667,0 14.666667,6.567 14.666667,14.666666 C 70.888889,59.433 64.321889,66 56.222222,66 A 14.666667,14.666667 0 0 1 44,59.418333 14.666667,14.666667 0 0 1 31.777778,66 14.666667,14.666667 0 0 1 21.248333,61.49 L 22,66 V 81.991556 A 44,44 0 0 0 44,88 C 68.300222,88 88,68.300222 88,44 88,19.699778 68.300222,0 44,0 Z M 31.777778,41.555556 a 9.7777778,9.7777778 0 1 0 0,19.555555 9.7777778,9.7777778 0 0 0 0,-19.555555 z m 24.444444,0 a 9.7777778,9.7777778 0 1 0 0,19.555555 9.7777778,9.7777778 0 0 0 0,-19.555555 z"
     style="fill:#5c3954;fill-opacity:1;stroke:none;stroke-width:4.78516;stroke-linecap:round;stroke-linejoin:round;stroke-dasharray:none;stroke-opacity:1"
     id="path4" />
</svg>
